{"glyphs":{"0":{"ha":603,"x_min":85,"x_max":518,"o":"m 518 75 q 496 21 518 42 q 441 0 475 0 l 160 0 q 106 21 127 0 q 85 75 85 42 l 85 986 q 106 1040 85 1019 q 160 1061 127 1061 l 441 1061 q 496 1040 475 1061 q 518 986 518 1019 l 518 75 m 179 978 l 179 83 l 424 83 l 424 978 l 179 978 z "},"1":{"ha":282,"x_min":54,"x_max":191,"o":"m 114 1061 l 191 1061 l 191 0 l 96 0 l 96 736 l 54 736 l 54 739 l 114 1061 z "},"2":{"ha":542,"x_min":58,"x_max":479,"o":"m 172 83 l 479 83 l 479 0 l 58 0 l 58 50 l 383 725 l 383 978 l 167 978 l 167 739 l 72 739 l 72 986 q 93 1040 72 1019 q 147 1061 114 1061 l 403 1061 q 457 1040 436 1061 q 478 986 478 1019 l 478 761 q 453 668 478 719 l 172 83 z "},"3":{"ha":586,"x_min":85,"x_max":509,"o":"m 509 75 q 488 21 509 42 q 433 0 467 0 l 160 0 q 106 21 127 0 q 85 75 85 42 l 85 345 l 179 345 l 179 83 l 414 83 l 414 408 l 227 549 l 227 570 l 412 708 l 412 978 l 180 978 l 180 739 l 86 739 l 86 986 q 107 1040 86 1019 q 161 1061 128 1061 l 432 1061 q 486 1040 465 1061 q 507 986 507 1019 l 507 728 q 467 648 507 677 l 340 559 l 468 471 q 509 390 509 444 l 509 75 z "},"4":{"ha":532,"x_min":29,"x_max":498,"o":"m 418 357 l 498 357 l 498 277 l 418 277 l 418 0 l 329 0 l 329 277 l 29 277 l 29 325 l 286 1061 l 375 1061 l 375 1057 l 131 357 l 329 357 l 329 742 l 418 742 l 418 357 z "},"5":{"ha":571,"x_min":82,"x_max":493,"o":"m 493 75 q 472 21 493 42 q 418 0 451 0 l 157 0 q 103 21 123 0 q 82 75 82 42 l 82 345 l 176 345 l 176 83 l 399 83 l 399 583 l 85 583 l 97 1061 l 485 1061 l 485 978 l 189 978 l 178 667 l 418 667 q 472 646 451 667 q 493 591 493 625 l 493 75 z "},"6":{"ha":589,"x_min":85,"x_max":505,"o":"m 505 75 q 485 21 505 42 q 431 0 464 0 l 160 0 q 106 21 127 0 q 85 75 85 42 l 85 986 q 106 1040 85 1019 q 160 1061 127 1061 l 428 1061 q 482 1040 461 1061 q 503 986 503 1019 l 503 751 l 408 751 l 408 978 l 179 978 l 179 585 l 431 585 q 485 564 464 585 q 505 510 505 543 l 505 75 m 179 503 l 179 83 l 411 83 l 411 503 l 179 503 z "},"7":{"ha":504,"x_min":49,"x_max":469,"o":"m 469 1013 l 241 0 l 149 0 l 370 978 l 143 978 l 143 822 l 49 822 l 49 1061 l 469 1061 l 469 1013 z "},"8":{"ha":599,"x_min":82,"x_max":513,"o":"m 513 75 q 491 21 513 42 q 436 0 469 0 l 157 0 q 103 21 123 0 q 82 75 82 42 l 82 421 q 117 489 82 467 l 220 555 l 119 618 q 85 686 85 640 l 85 986 q 106 1040 85 1019 q 160 1061 127 1061 l 435 1061 q 489 1040 468 1061 q 510 986 510 1019 l 510 686 q 475 618 510 639 l 375 555 l 476 489 q 513 421 513 466 l 513 75 m 179 673 l 297 595 l 415 673 l 415 978 l 179 978 l 179 673 m 176 435 l 176 83 l 418 83 l 418 435 l 297 514 l 176 435 z "},"9":{"ha":589,"x_min":81,"x_max":501,"o":"m 501 75 q 480 21 501 42 q 427 0 460 0 l 161 0 q 106 21 128 0 q 85 75 85 42 l 85 310 l 179 310 l 179 83 l 407 83 l 407 476 l 155 476 q 101 497 122 476 q 81 551 81 518 l 81 986 q 101 1040 81 1019 q 155 1061 122 1061 l 427 1061 q 480 1040 460 1061 q 501 986 501 1019 l 501 75 m 175 978 l 175 558 l 407 558 l 407 978 l 175 978 z "},"\u0000":{"ha":0,"x_min":0,"x_max":0,"o":""},"\r":{"ha":347,"x_min":0,"x_max":0,"o":""}," ":{"ha":272,"x_min":0,"x_max":0,"o":""},"!":{"ha":277,"x_min":86,"x_max":191,"o":"m 107 239 l 86 1061 l 191 1061 l 170 239 l 107 239 m 87 119 l 189 119 l 189 0 l 87 0 l 87 119 z "},"\"":{"ha":427,"x_min":65,"x_max":359,"o":"m 86 728 l 65 1061 l 165 1061 l 144 728 l 86 728 m 281 728 l 261 1061 l 359 1061 l 340 728 l 281 728 z "},"#":{"ha":724,"x_min":35,"x_max":689,"o":"m 571 771 l 689 771 l 689 693 l 557 693 l 500 368 l 640 368 l 640 290 l 486 290 l 435 0 l 349 0 l 401 290 l 237 290 l 187 0 l 102 0 l 153 290 l 35 290 l 35 368 l 167 368 l 224 693 l 83 693 l 83 771 l 237 771 l 289 1061 l 375 1061 l 322 771 l 486 771 l 536 1061 l 623 1061 l 571 771 m 252 368 l 414 368 l 472 693 l 309 693 l 252 368 z "},"$":{"ha":576,"x_min":81,"x_max":494,"o":"m 494 82 q 389 5 494 5 q 376 5 384 5 q 357 6 368 5 q 339 7 347 7 q 328 7 332 7 l 328 -83 l 245 -83 l 245 7 q 234 7 241 7 q 217 6 227 7 q 199 5 207 5 q 186 5 191 5 q 81 82 81 5 l 81 345 l 175 345 l 175 86 l 245 86 l 245 524 l 111 690 q 81 771 81 728 l 81 979 q 186 1056 81 1056 q 199 1056 191 1056 q 217 1055 207 1056 q 234 1054 227 1055 q 245 1054 241 1054 l 245 1145 l 328 1145 l 328 1054 q 339 1054 332 1054 q 357 1055 347 1055 q 376 1056 368 1056 q 389 1056 384 1056 q 494 979 494 1056 l 494 739 l 400 739 l 400 975 l 328 975 l 328 566 l 464 400 q 494 321 494 363 l 494 82 m 175 975 l 175 751 l 245 661 l 245 975 l 175 975 m 328 428 l 328 86 l 400 86 l 400 340 l 328 428 z "},"%":{"ha":930,"x_min":41,"x_max":871,"o":"m 370 591 q 365 564 370 576 q 350 542 359 551 q 329 527 341 532 q 303 522 317 522 l 106 522 q 82 528 94 522 q 61 544 70 534 q 46 566 52 553 q 41 591 41 578 l 41 991 q 46 1016 41 1004 q 61 1039 52 1029 q 82 1055 71 1048 q 106 1061 94 1061 l 303 1061 q 329 1055 317 1061 q 350 1040 340 1049 q 364 1018 359 1030 q 370 991 370 1005 l 370 591 m 707 1061 l 785 1061 l 785 1055 l 201 0 l 123 0 l 123 5 l 707 1061 m 123 982 l 123 597 l 288 597 l 288 982 l 123 982 m 871 69 q 866 42 871 55 q 851 20 861 30 q 830 5 842 11 q 804 0 819 0 l 607 0 q 583 6 595 0 q 562 22 571 12 q 547 44 553 32 q 542 69 542 57 l 542 470 q 548 495 542 482 q 563 517 553 507 q 583 533 572 527 q 607 540 595 540 l 804 540 q 830 534 818 540 q 851 518 842 528 q 865 496 860 509 q 871 470 871 484 l 871 69 m 624 460 l 624 76 l 789 76 l 789 460 l 624 460 z "},"&":{"ha":604,"x_min":81,"x_max":576,"o":"m 272 595 l 576 595 l 576 513 l 498 513 l 498 0 l 155 0 q 101 21 122 0 q 81 75 81 42 l 81 436 q 115 504 81 481 l 195 555 q 157 578 176 567 q 121 600 139 589 q 83 671 83 629 l 83 986 q 104 1040 83 1019 q 158 1061 125 1061 l 427 1061 q 481 1040 460 1061 q 503 986 503 1019 l 503 764 l 408 764 l 408 978 l 176 978 l 176 659 l 272 595 m 174 450 l 174 83 l 406 83 l 406 513 l 271 513 l 174 450 z "},"'":{"ha":231,"x_min":65,"x_max":165,"o":"m 86 728 l 65 1061 l 165 1061 l 144 728 l 86 728 z "},"(":{"ha":366,"x_min":71,"x_max":321,"o":"m 321 -136 l 239 -136 q 71 463 71 138 q 239 1061 71 787 l 321 1061 l 321 1054 q 250 908 279 979 q 202 767 220 838 q 174 622 183 696 q 165 463 165 547 q 174 303 165 378 q 202 158 183 229 q 250 17 220 87 q 321 -129 279 -54 l 321 -136 z "},")":{"ha":366,"x_min":46,"x_max":294,"o":"m 294 463 q 126 -136 294 138 l 46 -136 l 46 -129 q 117 17 87 -54 q 165 158 146 87 q 193 303 184 229 q 201 463 201 378 q 193 622 201 547 q 165 767 184 696 q 117 908 146 838 q 46 1054 87 979 l 46 1061 l 126 1061 q 294 463 294 787 z "},"*":{"ha":551,"x_min":66,"x_max":485,"o":"m 485 916 l 322 844 l 485 775 l 440 701 l 300 806 l 317 629 l 233 629 l 252 806 l 110 701 l 66 775 l 229 844 l 66 916 l 110 987 l 252 885 l 233 1061 l 317 1061 l 300 885 l 440 987 l 485 916 z "},"+":{"ha":568,"x_min":47,"x_max":522,"o":"m 326 505 l 522 505 l 522 427 l 326 427 l 326 235 l 243 235 l 243 427 l 47 427 l 47 505 l 243 505 l 243 697 l 326 697 l 326 505 z "},",":{"ha":231,"x_min":56,"x_max":180,"o":"m 56 -75 l 75 119 l 180 119 l 121 -75 l 56 -75 z "},"-":{"ha":410,"x_min":65,"x_max":345,"o":"m 65 447 l 345 447 l 345 363 l 65 363 l 65 447 z "},".":{"ha":231,"x_min":64,"x_max":167,"o":"m 64 119 l 167 119 l 167 0 l 64 0 l 64 119 z "},"/":{"ha":600,"x_min":31,"x_max":570,"o":"m 479 1061 l 570 1061 l 570 1055 l 121 0 l 31 0 l 31 5 l 479 1061 z "},":":{"ha":231,"x_min":64,"x_max":167,"o":"m 64 578 l 167 578 l 167 458 l 64 458 l 64 578 m 64 119 l 167 119 l 167 0 l 64 0 l 64 119 z "},";":{"ha":231,"x_min":45,"x_max":171,"o":"m 64 578 l 167 578 l 167 458 l 64 458 l 64 578 m 45 -75 l 64 119 l 171 119 l 110 -75 l 45 -75 z "},"<":{"ha":473,"x_min":52,"x_max":396,"o":"m 144 444 l 396 258 l 396 164 l 392 164 l 52 419 l 52 468 l 396 725 l 396 631 l 144 444 z "},"=":{"ha":612,"x_min":69,"x_max":543,"o":"m 69 595 l 543 595 l 543 513 l 69 513 l 69 595 m 69 346 l 543 346 l 543 265 l 69 265 l 69 346 z "},">":{"ha":473,"x_min":78,"x_max":422,"o":"m 83 725 l 422 468 l 422 419 l 78 164 l 78 258 l 329 444 l 78 631 l 78 725 l 83 725 z "},"?":{"ha":530,"x_min":61,"x_max":467,"o":"m 467 747 q 446 675 467 706 l 307 464 l 307 239 l 212 239 l 212 441 q 232 515 212 486 l 372 725 l 372 978 l 155 978 l 155 739 l 61 739 l 61 986 q 83 1040 61 1019 q 138 1061 104 1061 l 390 1061 q 446 1040 425 1061 q 467 986 467 1019 l 467 747 m 208 119 l 311 119 l 311 0 l 208 0 l 208 119 z "},"@":{"ha":783,"x_min":85,"x_max":699,"o":"m 136 47 l 699 47 l 699 0 l 129 0 q 85 45 85 0 l 85 1017 q 129 1061 85 1061 l 654 1061 q 699 1017 699 1061 l 699 279 q 654 235 699 235 l 310 235 q 261 282 261 235 l 261 532 q 310 581 261 581 l 452 581 l 452 770 l 335 770 l 335 659 l 267 659 l 267 783 q 315 832 267 832 l 471 832 q 519 783 519 832 l 519 286 l 647 286 l 647 1014 l 136 1014 l 136 47 m 330 519 l 330 296 l 452 296 l 452 519 l 330 519 z "},"A":{"ha":555,"x_min":43,"x_max":513,"o":"m 232 1064 l 325 1064 l 513 0 l 419 0 l 277 895 l 171 236 l 134 0 l 43 0 l 43 3 l 232 1064 z "},"B":{"ha":590,"x_min":85,"x_max":510,"o":"m 510 75 q 489 21 510 42 q 435 0 468 0 l 85 0 l 85 1061 l 432 1061 q 486 1040 465 1061 q 507 986 507 1019 l 507 671 q 469 600 507 629 l 395 555 l 475 504 q 510 436 510 483 l 510 75 m 179 595 l 318 595 l 412 659 l 412 978 l 179 978 l 179 595 m 179 513 l 179 83 l 415 83 l 415 450 l 319 513 l 179 513 z "},"C":{"ha":590,"x_min":85,"x_max":510,"o":"m 415 345 l 510 345 l 510 75 q 488 21 510 42 q 433 0 467 0 l 160 0 q 106 21 127 0 q 85 75 85 42 l 85 986 q 106 1040 85 1019 q 160 1061 127 1061 l 433 1061 q 488 1040 467 1061 q 510 986 510 1019 l 510 739 l 415 739 l 415 978 l 179 978 l 179 83 l 415 83 l 415 345 z "},"D":{"ha":603,"x_min":85,"x_max":522,"o":"m 522 192 q 508 115 522 150 q 467 54 493 79 q 405 14 441 28 q 328 0 370 0 l 85 0 l 85 1061 l 328 1061 q 406 1047 370 1061 q 467 1007 441 1033 q 508 947 493 982 q 522 869 522 911 l 522 192 m 428 861 q 419 909 428 888 q 395 946 411 930 q 358 969 380 961 q 310 978 336 978 l 179 978 l 179 83 l 304 83 q 355 92 332 83 q 394 115 378 100 q 419 152 410 130 q 428 201 428 174 l 428 861 z "},"E":{"ha":496,"x_min":85,"x_max":433,"o":"m 179 83 l 433 83 l 433 0 l 85 0 l 85 1061 l 429 1061 l 429 978 l 179 978 l 179 582 l 407 582 l 407 497 l 179 497 l 179 83 z "},"F":{"ha":472,"x_min":85,"x_max":427,"o":"m 85 1061 l 427 1061 l 427 978 l 179 978 l 179 575 l 407 575 l 407 490 l 179 490 l 179 0 l 85 0 l 85 1061 z "},"G":{"ha":597,"x_min":85,"x_max":514,"o":"m 306 532 l 514 532 l 514 75 q 493 21 514 42 q 439 0 472 0 l 160 0 q 106 21 127 0 q 85 75 85 42 l 85 986 q 106 1040 85 1019 q 160 1061 127 1061 l 439 1061 q 493 1040 472 1061 q 514 986 514 1019 l 514 739 l 419 739 l 419 978 l 179 978 l 179 83 l 419 83 l 419 450 l 306 450 l 306 532 z "},"H":{"ha":614,"x_min":85,"x_max":529,"o":"m 435 1061 l 529 1061 l 529 0 l 435 0 l 435 510 l 179 510 l 179 0 l 85 0 l 85 1061 l 179 1061 l 179 595 l 435 595 l 435 1061 z "},"I":{"ha":277,"x_min":90,"x_max":184,"o":"m 90 1061 l 184 1061 l 184 0 l 90 0 l 90 1061 z "},"J":{"ha":543,"x_min":61,"x_max":458,"o":"m 364 1061 l 458 1061 l 458 75 q 437 21 458 42 q 383 0 416 0 l 136 0 q 82 21 103 0 q 61 75 61 42 l 61 345 l 155 345 l 155 83 l 364 83 l 364 1061 z "},"K":{"ha":534,"x_min":85,"x_max":528,"o":"m 504 1055 l 264 550 l 528 0 l 424 0 l 179 510 l 179 0 l 85 0 l 85 1061 l 179 1061 l 179 585 l 401 1061 l 504 1061 l 504 1055 z "},"L":{"ha":468,"x_min":85,"x_max":424,"o":"m 179 83 l 424 83 l 424 0 l 85 0 l 85 1061 l 179 1061 l 179 83 z "},"M":{"ha":694,"x_min":85,"x_max":610,"o":"m 522 1061 l 610 1061 l 610 0 l 521 0 l 521 672 q 523 700 521 680 q 530 755 526 721 l 357 100 l 338 100 l 164 755 q 171 700 169 720 q 174 672 174 679 l 174 0 l 85 0 l 85 1061 l 172 1061 l 345 371 q 346 361 345 368 q 347 340 347 353 q 348 353 347 346 q 350 371 349 361 l 522 1061 z "},"N":{"ha":607,"x_min":85,"x_max":522,"o":"m 433 1061 l 522 1061 l 522 0 l 457 0 l 174 781 l 174 0 l 85 0 l 85 1061 l 155 1061 l 433 294 l 433 1061 z "},"O":{"ha":618,"x_min":85,"x_max":533,"o":"m 533 75 q 512 21 533 42 q 457 0 490 0 l 160 0 q 106 21 127 0 q 85 75 85 42 l 85 986 q 106 1040 85 1019 q 160 1061 127 1061 l 457 1061 q 512 1040 490 1061 q 533 986 533 1019 l 533 75 m 179 978 l 179 83 l 439 83 l 439 978 l 179 978 z "},"P":{"ha":570,"x_min":85,"x_max":505,"o":"m 505 497 q 484 443 505 464 q 429 421 463 421 l 179 421 l 179 0 l 85 0 l 85 1061 l 429 1061 q 484 1040 463 1061 q 505 986 505 1019 l 505 497 m 179 978 l 179 505 l 411 505 l 411 978 l 179 978 z "},"Q":{"ha":625,"x_min":85,"x_max":606,"o":"m 533 150 l 606 92 l 606 -1 l 597 -1 l 528 56 q 458 0 515 0 l 160 0 q 106 21 127 0 q 85 75 85 42 l 85 986 q 106 1040 85 1019 q 160 1061 127 1061 l 458 1061 q 512 1040 492 1061 q 533 986 533 1019 l 533 150 m 179 978 l 179 83 l 439 83 l 439 125 l 326 218 l 326 311 l 335 311 l 439 225 l 439 978 l 179 978 z "},"R":{"ha":593,"x_min":85,"x_max":536,"o":"m 437 0 l 240 568 l 253 587 l 421 587 l 421 978 l 179 978 l 179 0 l 85 0 l 85 1061 l 440 1061 q 494 1040 473 1061 q 515 986 515 1019 l 515 583 q 412 507 515 507 q 399 507 407 507 q 382 508 392 507 q 366 509 373 509 q 354 509 359 509 q 446 255 400 381 q 536 0 491 128 l 437 0 z "},"S":{"ha":581,"x_min":81,"x_max":498,"o":"m 498 75 q 478 21 498 42 q 424 0 457 0 l 157 0 q 102 21 123 0 q 81 75 81 42 l 81 345 l 175 345 l 175 83 l 404 83 l 404 336 l 111 690 q 81 771 81 727 l 81 986 q 102 1040 81 1019 q 157 1061 123 1061 l 424 1061 q 478 1040 457 1061 q 498 986 498 1019 l 498 739 l 404 739 l 404 978 l 175 978 l 175 754 l 469 400 q 498 321 498 365 l 498 75 z "},"T":{"ha":476,"x_min":26,"x_max":450,"o":"m 26 1061 l 450 1061 l 450 978 l 286 978 l 286 0 l 192 0 l 192 978 l 26 978 l 26 1061 z "},"U":{"ha":610,"x_min":85,"x_max":525,"o":"m 431 1061 l 525 1061 l 525 75 q 504 21 525 42 q 449 0 482 0 l 160 0 q 106 21 127 0 q 85 75 85 42 l 85 1061 l 179 1061 l 179 83 l 431 83 l 431 1061 z "},"V":{"ha":542,"x_min":43,"x_max":499,"o":"m 408 1061 l 499 1061 l 315 -3 l 227 -3 l 43 1061 l 136 1061 l 268 216 l 272 147 q 274 176 273 159 q 277 216 275 193 l 408 1061 z "},"W":{"ha":761,"x_min":41,"x_max":720,"o":"m 627 1061 l 720 1061 l 575 -3 l 498 -3 l 383 798 l 380 860 q 380 833 380 849 q 378 798 379 818 l 262 -3 l 186 -3 l 41 1061 l 135 1061 l 225 296 l 228 220 q 228 252 227 233 q 231 296 229 271 l 340 1061 l 421 1061 l 530 296 q 532 264 531 283 q 533 220 532 245 q 534 252 533 233 q 536 296 535 271 l 627 1061 z "},"X":{"ha":533,"x_min":29,"x_max":505,"o":"m 407 0 l 265 436 l 123 0 l 29 0 l 29 5 l 218 543 q 40 1061 39 1059 l 139 1061 l 267 659 l 399 1061 l 493 1061 l 493 1055 l 317 549 q 504 0 505 3 l 407 0 z "},"Y":{"ha":542,"x_min":31,"x_max":511,"o":"m 511 1055 l 382 626 q 354 540 370 593 q 318 411 338 487 l 318 0 l 224 0 l 224 411 q 212 464 219 437 q 195 519 204 491 l 159 626 l 31 1055 l 31 1061 l 126 1061 l 272 530 l 416 1061 l 511 1061 l 511 1055 z "},"Z":{"ha":478,"x_min":33,"x_max":440,"o":"m 142 83 l 440 83 l 440 0 l 33 0 l 33 50 l 332 978 l 62 978 l 62 1061 l 440 1061 l 440 1013 l 142 83 z "},"[":{"ha":403,"x_min":87,"x_max":343,"o":"m 182 -85 l 343 -85 l 343 -168 l 163 -168 q 109 -147 130 -168 q 87 -93 87 -126 l 87 986 q 109 1040 87 1019 q 163 1061 130 1061 l 343 1061 l 343 978 l 182 978 l 182 -85 z "},"\\":{"ha":600,"x_min":31,"x_max":570,"o":"m 31 1061 l 121 1061 l 570 0 l 479 0 l 31 1061 z "},"]":{"ha":403,"x_min":60,"x_max":317,"o":"m 317 -93 q 295 -147 317 -126 q 240 -168 273 -168 l 60 -168 l 60 -85 l 222 -85 l 222 978 l 60 978 l 60 1061 l 240 1061 q 295 1040 273 1061 q 317 986 317 1019 l 317 -93 z "},"^":{"ha":555,"x_min":65,"x_max":490,"o":"m 243 1061 l 314 1061 l 490 686 l 414 686 l 277 949 l 139 686 l 65 686 l 65 692 l 243 1061 z "},"_":{"ha":501,"x_min":0,"x_max":501,"o":"m 0 -203 l 501 -203 l 501 -278 l 0 -278 l 0 -203 z "},"`":{"ha":555,"x_min":196,"x_max":425,"o":"m 323 878 l 425 722 l 425 718 l 363 718 l 196 875 l 196 878 l 323 878 z "},"a":{"ha":521,"x_min":71,"x_max":447,"o":"m 447 0 l 358 0 l 358 18 q 302 11 332 14 q 245 3 273 7 q 191 -2 216 0 q 144 -4 165 -4 q 71 69 71 -4 l 71 310 q 147 386 71 386 l 359 386 l 359 585 l 165 585 l 165 472 l 78 472 l 78 583 q 154 660 78 660 l 371 660 q 447 583 447 660 l 447 0 m 158 315 l 158 78 l 359 82 l 359 315 l 158 315 z "},"b":{"ha":526,"x_min":74,"x_max":453,"o":"m 453 142 q 443 85 453 111 q 413 40 432 59 q 369 11 394 22 q 313 0 343 0 l 74 0 l 74 1061 l 164 1061 l 164 642 l 271 655 q 332 662 306 660 q 378 664 358 664 q 453 590 453 664 l 453 142 m 363 579 l 164 574 l 164 79 l 289 79 q 363 155 363 79 l 363 579 z "},"c":{"ha":513,"x_min":74,"x_max":440,"o":"m 351 227 l 440 227 l 440 77 q 364 0 440 0 l 150 0 q 74 77 74 0 l 74 583 q 150 660 74 660 l 364 660 q 440 583 440 660 l 440 452 l 351 452 l 351 581 l 164 581 l 164 79 l 351 79 l 351 227 z "},"d":{"ha":524,"x_min":71,"x_max":449,"o":"m 359 1061 l 449 1061 l 449 0 l 359 0 l 359 18 q 199 -4 214 -4 q 146 6 170 -4 q 106 35 123 16 q 80 78 89 53 q 71 132 71 103 l 71 518 q 81 575 71 549 q 111 620 92 601 q 155 649 130 638 q 211 660 180 660 l 359 660 l 359 1061 m 359 581 l 235 581 q 160 504 160 581 l 160 151 q 235 75 160 75 q 275 77 243 75 q 359 82 306 79 l 359 581 z "},"e":{"ha":518,"x_min":74,"x_max":443,"o":"m 355 196 l 443 196 l 443 77 q 367 0 443 0 l 150 0 q 74 77 74 0 l 74 583 q 150 660 74 660 l 367 660 q 443 583 443 660 l 443 346 l 412 314 l 161 314 l 161 75 l 355 75 l 355 196 m 161 585 l 161 386 l 355 386 l 355 585 l 161 585 z "},"f":{"ha":330,"x_min":31,"x_max":323,"o":"m 323 1061 l 323 982 l 196 982 l 196 660 l 309 660 l 309 581 l 196 581 l 196 0 l 107 0 l 107 581 l 31 581 l 31 660 l 107 660 l 107 985 q 183 1061 107 1061 l 323 1061 z "},"g":{"ha":524,"x_min":71,"x_max":449,"o":"m 359 660 l 449 660 l 449 -174 q 372 -250 449 -250 l 158 -250 q 80 -153 80 -250 q 80 -139 80 -148 q 81 -119 81 -130 q 82 -99 82 -107 q 82 -86 82 -92 l 171 -86 l 171 -174 l 359 -174 l 359 0 l 211 0 q 155 11 180 0 q 111 40 130 22 q 81 85 92 59 q 71 142 71 111 l 71 528 q 80 582 71 557 q 106 625 89 607 q 146 654 123 644 q 199 664 170 664 q 359 642 214 664 l 359 660 m 359 79 l 359 578 q 275 583 306 581 q 235 585 243 585 q 160 509 160 585 l 160 155 q 235 79 160 79 l 359 79 z "},"h":{"ha":525,"x_min":74,"x_max":453,"o":"m 453 0 l 363 0 l 363 579 l 164 574 l 164 0 l 74 0 l 74 1061 l 164 1061 l 164 642 l 271 655 q 332 662 306 660 q 378 664 358 664 q 453 590 453 664 l 453 0 z "},"i":{"ha":248,"x_min":78,"x_max":170,"o":"m 78 918 l 170 918 l 170 804 l 78 804 l 78 918 m 79 660 l 168 660 l 168 0 l 79 0 l 79 660 z "},"j":{"ha":248,"x_min":-21,"x_max":170,"o":"m 78 918 l 170 918 l 170 804 l 78 804 l 78 918 m 79 660 l 168 660 l 168 -174 q 92 -250 168 -250 l -21 -250 l -21 -171 l 79 -171 l 79 660 z "},"k":{"ha":465,"x_min":74,"x_max":444,"o":"m 431 657 l 239 366 l 444 0 l 346 0 l 164 336 l 164 0 l 74 0 l 74 1061 l 164 1061 l 164 387 l 334 660 l 431 660 l 431 657 z "},"l":{"ha":248,"x_min":79,"x_max":168,"o":"m 79 1061 l 168 1061 l 168 0 l 79 0 l 79 1061 z "},"m":{"ha":810,"x_min":74,"x_max":737,"o":"m 737 0 l 647 0 l 647 579 l 450 574 l 450 0 l 361 0 l 361 579 l 164 574 l 164 0 l 74 0 l 74 660 l 164 660 l 164 642 l 270 656 q 376 664 334 664 q 437 639 418 664 q 494 646 466 642 q 551 654 522 650 q 616 662 588 659 q 663 664 644 664 q 737 590 737 664 l 737 0 z "},"n":{"ha":525,"x_min":74,"x_max":453,"o":"m 453 0 l 363 0 l 363 579 l 164 574 l 164 0 l 74 0 l 74 660 l 164 660 l 164 642 l 271 656 q 378 664 336 664 q 453 590 453 664 l 453 0 z "},"o":{"ha":526,"x_min":74,"x_max":453,"o":"m 453 77 q 376 0 453 0 l 150 0 q 74 77 74 0 l 74 583 q 150 660 74 660 l 376 660 q 453 583 453 660 l 453 77 m 164 581 l 164 79 l 363 79 l 363 581 l 164 581 z "},"p":{"ha":524,"x_min":74,"x_max":453,"o":"m 453 142 q 443 85 453 111 q 413 40 432 59 q 369 11 394 22 q 313 0 343 0 l 164 0 l 164 -250 l 74 -250 l 74 660 l 164 660 l 164 642 l 271 655 q 332 662 306 660 q 378 664 358 664 q 453 590 453 664 l 453 142 m 363 579 l 164 574 l 164 79 l 289 79 q 363 155 363 79 l 363 579 z "},"q":{"ha":524,"x_min":71,"x_max":449,"o":"m 359 660 l 449 660 l 449 -250 l 359 -250 l 359 0 l 211 0 q 155 11 180 0 q 111 40 130 22 q 81 85 92 59 q 71 142 71 111 l 71 528 q 80 582 71 557 q 106 625 89 607 q 146 654 123 644 q 199 664 170 664 q 359 642 214 664 l 359 660 m 359 79 l 359 578 q 275 583 306 581 q 235 585 243 585 q 160 509 160 585 l 160 155 q 235 79 160 79 l 359 79 z "},"r":{"ha":460,"x_min":74,"x_max":419,"o":"m 419 443 l 330 443 l 330 579 l 164 574 l 164 0 l 74 0 l 74 660 l 164 660 l 164 642 l 254 656 q 345 664 309 664 q 419 590 419 664 l 419 443 z "},"s":{"ha":498,"x_min":69,"x_max":429,"o":"m 429 77 q 353 0 429 0 l 146 0 q 69 77 69 0 l 69 227 l 158 227 l 158 78 l 340 78 l 340 210 l 104 403 q 71 473 71 431 l 71 583 q 147 660 71 660 l 351 660 q 428 583 428 660 l 428 452 l 340 452 l 340 582 l 158 582 l 158 467 l 396 273 q 429 201 429 247 l 429 77 z "},"t":{"ha":353,"x_min":28,"x_max":311,"o":"m 196 79 l 311 79 l 311 0 l 183 0 q 107 77 107 0 l 107 581 l 28 581 l 28 660 l 107 660 l 107 865 l 196 865 l 196 660 l 311 660 l 311 581 l 196 581 l 196 79 z "},"u":{"ha":525,"x_min":74,"x_max":452,"o":"m 363 660 l 452 660 l 452 0 l 363 0 l 363 18 q 307 11 336 14 q 249 3 277 7 q 195 -2 221 0 q 147 -4 169 -4 q 74 69 74 -4 l 74 660 l 163 660 l 163 81 l 363 86 l 363 660 z "},"v":{"ha":482,"x_min":36,"x_max":446,"o":"m 241 140 l 355 660 l 446 660 l 282 -1 l 200 -1 l 36 660 l 129 660 l 241 140 z "},"w":{"ha":701,"x_min":37,"x_max":664,"o":"m 486 151 l 579 660 l 664 660 l 528 -1 l 447 -1 l 350 500 l 253 -1 l 174 -1 l 37 660 l 122 660 l 215 151 l 311 660 l 390 660 l 486 151 z "},"x":{"ha":460,"x_min":28,"x_max":432,"o":"m 422 657 l 278 342 l 432 0 l 340 0 l 229 261 l 117 0 l 28 0 l 28 3 l 182 339 l 37 660 l 129 660 l 231 418 l 335 660 l 422 660 l 422 657 z "},"y":{"ha":482,"x_min":36,"x_max":446,"o":"m 241 140 l 355 660 l 446 660 l 287 5 l 221 -250 l 132 -250 l 199 5 l 36 660 l 129 660 l 241 140 z "},"z":{"ha":444,"x_min":43,"x_max":390,"o":"m 149 81 l 390 81 l 390 0 l 43 0 l 43 41 l 283 579 l 68 579 l 68 660 l 390 660 l 390 618 l 149 81 z "},"{":{"ha":473,"x_min":43,"x_max":414,"o":"m 414 -168 l 296 -168 q 240 -158 265 -168 q 196 -129 214 -147 q 167 -85 178 -111 q 157 -29 157 -60 l 157 353 l 43 458 l 43 478 l 157 583 l 157 922 q 167 978 157 953 q 196 1022 178 1004 q 240 1051 214 1040 q 296 1061 265 1061 l 414 1061 l 414 979 q 401 980 409 979 q 382 981 394 980 q 362 981 371 981 q 347 981 353 981 q 252 911 252 981 l 252 596 q 218 522 252 554 q 184 495 201 508 q 150 468 167 481 q 184 441 167 454 q 218 414 201 428 q 252 340 252 382 l 252 -18 q 347 -88 252 -88 q 362 -88 353 -88 q 382 -87 371 -87 q 401 -86 394 -86 q 414 -86 409 -86 l 414 -168 z "},"|":{"ha":283,"x_min":98,"x_max":184,"o":"m 98 1061 l 184 1061 l 184 -232 l 98 -232 l 98 1061 z "},"}":{"ha":473,"x_min":60,"x_max":431,"o":"m 317 583 l 431 478 l 431 458 l 317 353 l 317 -29 q 306 -84 317 -59 q 277 -129 296 -110 q 233 -158 258 -147 q 178 -168 208 -168 l 60 -168 l 60 -86 q 72 -86 64 -86 q 92 -87 80 -86 q 112 -88 103 -87 q 126 -88 120 -88 q 222 -18 222 -88 l 222 340 q 256 414 222 382 q 290 441 273 428 q 323 468 307 454 q 290 495 307 481 q 256 522 273 508 q 222 596 222 554 l 222 911 q 126 981 222 981 q 112 981 120 981 q 92 981 103 981 q 72 980 80 980 q 60 979 64 979 l 60 1061 l 178 1061 q 233 1051 208 1061 q 277 1022 258 1040 q 306 978 296 1003 q 317 922 317 952 l 317 583 z "},"~":{"ha":701,"x_min":115,"x_max":586,"o":"m 497 511 l 586 511 l 586 370 q 530 311 586 311 q 460 325 497 311 l 204 422 l 204 315 l 115 315 l 115 457 q 171 515 115 515 q 241 501 206 515 l 497 404 l 497 511 z "}," ":{"ha":136,"x_min":0,"x_max":0,"o":""},"¡":{"ha":277,"x_min":86,"x_max":191,"o":"m 87 1061 l 189 1061 l 189 942 l 87 942 l 87 1061 m 107 822 l 170 822 l 191 0 l 86 0 l 107 822 z "},"¢":{"ha":513,"x_min":74,"x_max":440,"o":"m 351 429 l 440 429 l 440 279 q 347 201 440 201 q 335 201 342 201 q 320 202 329 201 q 304 203 311 203 q 293 203 298 203 l 293 0 l 221 0 l 221 203 q 210 203 216 203 q 194 202 203 203 q 178 201 184 201 q 167 201 172 201 q 74 279 74 201 l 74 786 q 167 863 74 863 l 194 863 q 210 863 203 863 q 221 863 216 863 l 221 1061 l 293 1061 l 293 863 q 304 863 298 863 q 320 863 311 863 l 347 863 q 440 786 440 863 l 440 654 l 351 654 l 351 783 l 293 783 l 293 282 l 351 282 l 351 429 m 164 783 l 164 282 l 221 282 l 221 783 l 164 783 z "},"£":{"ha":581,"x_min":41,"x_max":522,"o":"m 212 83 l 522 83 l 522 0 l 41 0 l 41 83 l 119 83 l 119 468 l 41 468 l 41 550 l 119 550 l 119 986 q 140 1040 119 1019 q 195 1061 161 1061 l 437 1061 q 492 1040 471 1061 q 514 986 514 1019 l 514 739 l 419 739 l 419 979 l 212 979 l 212 550 l 412 550 l 412 468 l 212 468 l 212 83 z "},"¤":{"ha":828,"x_min":96,"x_max":743,"o":"m 532 694 l 663 825 l 743 745 l 623 625 l 623 357 l 743 237 l 663 157 l 531 288 l 307 288 l 176 157 l 96 237 l 216 357 l 216 625 l 96 745 l 176 825 l 308 694 l 532 694 m 328 594 l 328 389 l 511 389 l 511 594 l 328 594 z "},"¥":{"ha":542,"x_min":30,"x_max":511,"o":"m 511 1055 l 383 631 l 500 631 l 500 551 l 359 551 l 322 428 l 500 428 l 500 349 l 318 349 l 318 0 l 224 0 l 224 349 l 41 349 l 41 428 l 220 428 l 182 551 l 41 551 l 41 631 l 158 631 q 31 1061 30 1059 l 126 1061 l 272 530 l 416 1061 l 511 1061 l 511 1055 z "},"¦":{"ha":269,"x_min":87,"x_max":182,"o":"m 87 1111 l 182 1111 l 182 550 l 87 550 l 87 1111 m 87 283 l 182 283 l 182 -277 l 87 -277 l 87 283 z "},"§":{"ha":579,"x_min":81,"x_max":498,"o":"m 498 75 q 478 21 498 42 q 424 0 457 0 l 157 0 q 102 21 123 0 q 81 75 81 42 l 81 240 l 174 240 l 174 81 l 407 81 l 407 244 l 125 401 q 81 475 81 426 l 81 579 q 123 652 81 629 l 215 701 l 125 751 q 81 825 81 776 l 81 986 q 102 1040 81 1019 q 157 1061 123 1061 l 424 1061 q 478 1040 457 1061 q 498 986 498 1019 l 498 821 l 407 821 l 407 981 l 174 981 l 174 817 l 454 660 q 498 586 498 634 l 498 482 q 456 410 498 433 l 366 359 l 454 310 q 498 236 498 284 l 498 75 m 168 468 l 290 400 l 412 468 l 412 593 l 290 661 l 168 593 l 168 468 z "},"¨":{"ha":555,"x_min":140,"x_max":415,"o":"m 140 821 l 240 821 l 240 718 l 140 718 l 140 821 m 315 821 l 415 821 l 415 718 l 315 718 l 315 821 z "},"©":{"ha":783,"x_min":85,"x_max":699,"o":"m 699 45 q 654 0 699 0 l 129 0 q 85 45 85 0 l 85 1017 q 129 1061 85 1061 l 654 1061 q 699 1017 699 1061 l 699 45 m 136 1014 l 136 47 l 647 47 l 647 1014 l 136 1014 m 452 437 l 521 437 l 521 282 q 472 235 521 235 l 311 235 q 261 282 261 235 l 261 783 q 311 832 261 832 l 472 832 q 521 783 521 832 l 521 640 l 452 640 l 452 768 l 330 768 l 330 297 l 452 297 l 452 437 z "},"ª":{"ha":454,"x_min":77,"x_max":378,"o":"m 378 533 l 300 533 l 300 549 q 135 530 145 530 q 77 589 77 530 l 77 783 q 136 843 77 843 l 301 843 l 301 996 l 155 996 l 155 911 l 81 911 l 81 1000 q 142 1061 81 1061 l 315 1061 q 378 1000 378 1061 l 378 533 m 150 782 l 150 600 l 301 604 l 301 782 l 150 782 m 77 446 l 378 446 l 378 379 l 77 379 l 77 446 z "},"«":{"ha":621,"x_min":53,"x_max":551,"o":"m 318 642 l 147 376 l 318 106 l 222 106 l 53 363 l 53 390 l 222 647 l 318 647 l 318 642 m 551 642 l 379 376 l 551 106 l 454 106 l 285 363 l 285 390 l 454 647 l 551 647 l 551 642 z "},"¬":{"ha":639,"x_min":81,"x_max":558,"o":"m 81 507 l 558 507 l 558 225 l 474 225 l 474 423 l 81 423 l 81 507 z "},"­":{"ha":639,"x_min":81,"x_max":558,"o":"m 81 507 l 558 507 l 558 423 l 81 423 l 81 507 z "},"®":{"ha":783,"x_min":85,"x_max":699,"o":"m 699 45 q 654 0 699 0 l 129 0 q 85 45 85 0 l 85 1017 q 129 1061 85 1061 l 654 1061 q 699 1017 699 1061 l 699 45 m 136 1014 l 136 47 l 647 47 l 647 1014 l 136 1014 m 465 235 l 355 554 l 370 575 l 456 575 l 456 770 l 330 770 l 330 235 l 262 235 l 262 832 l 476 832 q 524 783 524 832 l 524 562 q 519 536 524 545 q 504 522 514 526 q 477 516 494 517 q 439 515 461 515 q 536 235 538 238 l 465 235 z "},"¯":{"ha":555,"x_min":127,"x_max":428,"o":"m 127 811 l 428 811 l 428 739 l 127 739 l 127 811 z "},"°":{"ha":453,"x_min":62,"x_max":390,"o":"m 390 603 q 319 533 390 533 l 134 533 q 62 603 62 533 l 62 991 q 134 1061 62 1061 l 319 1061 q 390 991 390 1061 l 390 603 m 139 993 l 139 602 l 313 602 l 313 993 l 139 993 z "},"±":{"ha":568,"x_min":46,"x_max":524,"o":"m 325 518 l 521 518 l 521 441 l 325 441 l 325 269 l 244 269 l 244 441 l 47 441 l 47 518 l 244 518 l 244 697 l 325 697 l 325 518 m 46 212 l 524 212 l 524 129 l 46 129 l 46 212 z "},"²":{"ha":430,"x_min":43,"x_max":387,"o":"m 159 601 l 387 601 l 387 522 l 43 522 l 43 574 l 288 854 l 288 984 l 134 984 l 134 863 l 54 863 l 54 972 q 60 1007 54 991 q 77 1035 66 1023 q 103 1054 88 1047 q 137 1061 119 1061 l 281 1061 q 344 1036 319 1061 q 368 972 368 1011 l 368 889 q 336 797 368 833 l 159 601 z "},"³":{"ha":429,"x_min":48,"x_max":382,"o":"m 382 602 q 377 571 382 586 q 362 546 372 557 q 339 528 353 534 q 310 522 326 522 l 129 522 q 48 604 48 522 l 48 692 l 126 692 l 126 595 l 304 595 l 304 704 l 180 781 l 180 826 l 294 893 l 294 985 l 140 985 l 140 898 l 58 898 l 58 974 q 144 1061 58 1061 l 295 1061 q 372 986 372 1061 l 372 907 q 340 843 372 869 q 307 823 323 833 q 274 803 291 812 q 311 781 293 791 q 348 758 330 770 q 382 687 382 732 l 382 602 z "},"´":{"ha":555,"x_min":127,"x_max":357,"o":"m 229 878 l 357 878 l 357 875 l 191 718 l 127 718 l 127 722 l 229 878 z "},"µ":{"ha":532,"x_min":74,"x_max":458,"o":"m 369 660 l 458 660 l 458 0 l 370 0 l 370 19 q 245 -1 323 -1 q 163 26 181 -1 l 163 -250 l 74 -250 l 74 660 l 163 660 l 163 172 q 256 77 163 77 q 317 80 289 77 q 369 88 345 83 l 369 660 z "},"¶":{"ha":643,"x_min":65,"x_max":558,"o":"m 558 1061 l 558 0 l 468 0 l 468 421 l 349 421 l 349 0 l 258 0 l 258 421 l 140 421 q 86 443 107 421 q 65 497 65 464 l 65 986 q 86 1040 65 1019 q 140 1061 107 1061 l 558 1061 m 288 978 l 288 505 l 468 505 l 468 978 l 288 978 z "},"·":{"ha":231,"x_min":64,"x_max":167,"o":"m 64 475 l 167 475 l 167 354 l 64 354 l 64 475 z "},"¸":{"ha":555,"x_min":154,"x_max":401,"o":"m 401 -196 q 347 -250 401 -250 l 208 -250 q 154 -196 154 -250 l 154 -119 l 225 -119 l 225 -189 l 329 -189 l 329 -117 q 298 -101 313 -109 q 269 -86 283 -94 q 239 -32 239 -66 l 239 14 l 311 14 l 311 -33 q 342 -49 327 -41 q 373 -64 357 -57 q 401 -119 401 -84 l 401 -196 z "},"¹":{"ha":269,"x_min":57,"x_max":182,"o":"m 116 1061 l 182 1061 l 182 522 l 93 522 l 93 791 l 57 791 l 116 1061 z "},"º":{"ha":457,"x_min":77,"x_max":380,"o":"m 380 595 q 319 533 380 533 l 139 533 q 77 595 77 533 l 77 1000 q 139 1061 77 1061 l 319 1061 q 380 1000 380 1061 l 380 595 m 153 993 l 153 602 l 304 602 l 304 993 l 153 993 m 77 446 l 380 446 l 380 379 l 77 379 l 77 446 z "},"»":{"ha":621,"x_min":71,"x_max":568,"o":"m 167 647 l 336 390 l 336 363 l 167 106 l 71 106 l 71 111 l 241 376 l 71 647 l 167 647 m 400 647 l 568 390 l 568 363 l 400 106 l 302 106 l 302 111 l 475 376 l 302 647 l 400 647 z "},"¼":{"ha":746,"x_min":380,"x_max":1042,"o":"m 673 388 l 688 388 l 688 201 l 743 201 l 743 131 l 688 131 l 688 0 l 608 0 l 608 131 l 531 131 l 458 0 l 380 0 l 380 5 l 450 131 l 389 131 l 389 189 l 512 522 l 456 522 l 456 791 l 420 791 l 479 1061 l 545 1061 l 545 540 l 601 540 l 472 201 l 489 201 l 964 1061 l 1042 1061 l 1042 1055 l 673 388 m 570 201 l 608 201 l 608 270 l 570 201 z "},"½":{"ha":738,"x_min":317,"x_max":979,"o":"m 684 517 q 703 488 696 505 q 710 451 710 471 l 710 368 q 677 275 710 311 l 501 79 l 729 79 l 729 0 l 397 0 l 395 -4 l 317 -4 l 317 1 l 572 463 l 476 463 l 476 341 l 395 341 l 395 451 q 407 496 395 475 q 437 528 418 517 l 437 791 l 401 791 l 460 1061 l 526 1061 l 526 540 l 615 540 l 901 1057 l 979 1057 l 979 1051 l 684 517 m 500 184 l 629 333 l 629 419 l 500 184 z "},"¾":{"ha":882,"x_min":485,"x_max":1255,"o":"m 784 201 l 839 201 l 839 131 l 784 131 l 784 0 l 704 0 l 704 59 l 671 0 l 593 0 l 593 5 l 663 131 l 485 131 l 485 189 l 608 522 l 566 522 q 485 604 485 522 l 485 692 l 563 692 l 563 595 l 741 595 l 741 704 l 616 781 l 616 826 l 731 893 l 731 985 l 576 985 l 576 898 l 494 898 l 494 974 q 581 1061 494 1061 l 732 1061 q 808 986 808 1061 l 808 907 q 777 843 808 869 q 744 823 760 833 q 711 803 728 812 q 748 781 730 791 q 785 758 766 770 q 819 687 819 732 l 819 602 q 813 571 819 586 q 799 546 808 557 q 776 528 789 534 q 747 522 763 522 l 690 522 l 568 201 l 702 201 l 704 205 l 704 388 l 784 388 l 784 350 l 1177 1061 l 1255 1061 l 1255 1055 l 784 203 l 784 201 z "},"¿":{"ha":530,"x_min":64,"x_max":469,"o":"m 220 1061 l 322 1061 l 322 942 l 220 942 l 220 1061 m 375 322 l 469 322 l 469 75 q 448 21 469 42 q 393 0 427 0 l 140 0 q 85 21 107 0 q 64 75 64 42 l 64 314 q 85 386 64 355 l 224 597 l 224 822 l 318 822 l 318 619 q 298 546 318 576 l 158 336 l 158 83 l 375 83 l 375 322 z "},"À":{"ha":555,"x_min":43,"x_max":513,"o":"m 247 1280 l 349 1125 l 349 1121 l 286 1121 l 119 1278 l 119 1280 l 247 1280 m 232 1064 l 325 1064 l 513 0 l 419 0 l 382 236 l 171 236 l 134 0 l 43 0 l 43 3 l 232 1064 m 277 895 l 183 319 l 370 319 l 277 895 z "},"Á":{"ha":555,"x_min":43,"x_max":513,"o":"m 306 1280 l 433 1280 l 433 1278 l 267 1121 l 204 1121 l 204 1125 l 306 1280 m 232 1064 l 325 1064 l 513 0 l 419 0 l 382 236 l 171 236 l 134 0 l 43 0 l 43 3 l 232 1064 m 277 895 l 183 319 l 370 319 l 277 895 z "},"Â":{"ha":555,"x_min":43,"x_max":513,"o":"m 304 1270 l 437 1116 l 437 1111 l 379 1111 l 277 1190 l 174 1111 l 118 1111 l 118 1116 l 252 1270 l 304 1270 m 232 1064 l 325 1064 l 513 0 l 419 0 l 382 236 l 171 236 l 134 0 l 43 0 l 43 3 l 232 1064 m 277 895 l 183 319 l 370 319 l 277 895 z "},"Ã":{"ha":555,"x_min":43,"x_max":513,"o":"m 353 1251 l 425 1251 l 425 1168 q 375 1118 425 1118 q 286 1143 346 1118 l 203 1179 l 203 1120 l 131 1120 l 131 1203 q 180 1253 131 1253 q 270 1228 210 1253 l 353 1192 l 353 1251 m 232 1064 l 325 1064 l 513 0 l 419 0 l 382 236 l 171 236 l 134 0 l 43 0 l 43 3 l 232 1064 m 277 895 l 183 319 l 370 319 l 277 895 z "},"Ä":{"ha":555,"x_min":43,"x_max":513,"o":"m 140 1223 l 240 1223 l 240 1121 l 140 1121 l 140 1223 m 315 1223 l 415 1223 l 415 1121 l 315 1121 l 315 1223 m 232 1064 l 325 1064 l 513 0 l 419 0 l 382 236 l 171 236 l 134 0 l 43 0 l 43 3 l 232 1064 m 277 895 l 183 319 l 370 319 l 277 895 z "},"Å":{"ha":555,"x_min":43,"x_max":513,"o":"m 419 0 l 382 236 l 171 236 l 134 0 l 43 0 l 43 3 l 223 1015 l 210 1015 q 147 1077 147 1015 l 147 1204 q 210 1267 147 1267 l 346 1267 q 408 1204 408 1267 l 408 1077 q 346 1015 408 1015 l 334 1015 l 513 0 l 419 0 m 339 1077 l 339 1204 l 216 1204 l 216 1077 l 339 1077 m 277 895 l 183 319 l 370 319 l 277 895 z "},"Æ":{"ha":771,"x_min":37,"x_max":708,"o":"m 458 83 l 708 83 l 708 0 l 366 0 l 366 236 l 184 236 l 127 0 l 37 0 l 37 3 l 300 1061 l 704 1061 l 704 978 l 458 978 l 458 582 l 684 582 l 684 497 l 458 497 l 458 83 m 366 989 l 203 319 l 366 319 l 366 989 z "},"Ç":{"ha":590,"x_min":85,"x_max":510,"o":"m 415 978 l 179 978 l 179 83 l 415 83 l 415 345 l 510 345 l 510 75 q 488 21 510 42 q 433 0 467 0 l 332 0 l 332 -45 q 362 -61 347 -53 q 393 -77 378 -69 q 422 -132 422 -96 l 422 -208 q 368 -262 422 -262 l 229 -262 q 174 -208 174 -262 l 174 -132 l 245 -132 l 245 -201 l 349 -201 l 349 -129 q 319 -114 334 -121 q 289 -98 304 -106 q 259 -44 259 -79 l 259 0 l 160 0 q 106 21 127 0 q 85 75 85 42 l 85 986 q 106 1040 85 1019 q 160 1061 127 1061 l 433 1061 q 488 1040 467 1061 q 510 986 510 1019 l 510 739 l 415 739 l 415 978 z "},"È":{"ha":496,"x_min":85,"x_max":433,"o":"m 239 1280 l 340 1125 l 340 1121 l 278 1121 l 111 1278 l 111 1280 l 239 1280 m 179 83 l 433 83 l 433 0 l 85 0 l 85 1061 l 429 1061 l 429 978 l 179 978 l 179 582 l 407 582 l 407 497 l 179 497 l 179 83 z "},"É":{"ha":496,"x_min":85,"x_max":433,"o":"m 265 1280 l 393 1280 l 393 1278 l 227 1121 l 163 1121 l 163 1125 l 265 1280 m 179 83 l 433 83 l 433 0 l 85 0 l 85 1061 l 429 1061 l 429 978 l 179 978 l 179 582 l 407 582 l 407 497 l 179 497 l 179 83 z "},"Ê":{"ha":496,"x_min":85,"x_max":433,"o":"m 283 1280 l 416 1126 l 416 1121 l 358 1121 l 256 1200 l 153 1121 l 97 1121 l 97 1126 l 231 1280 l 283 1280 m 179 83 l 433 83 l 433 0 l 85 0 l 85 1061 l 429 1061 l 429 978 l 179 978 l 179 582 l 407 582 l 407 497 l 179 497 l 179 83 z "},"Ë":{"ha":496,"x_min":85,"x_max":433,"o":"m 120 1223 l 220 1223 l 220 1121 l 120 1121 l 120 1223 m 295 1223 l 395 1223 l 395 1121 l 295 1121 l 295 1223 m 179 83 l 433 83 l 433 0 l 85 0 l 85 1061 l 429 1061 l 429 978 l 179 978 l 179 582 l 407 582 l 407 497 l 179 497 l 179 83 z "},"Ì":{"ha":277,"x_min":-20,"x_max":209,"o":"m 107 1280 l 209 1125 l 209 1121 l 146 1121 l -20 1278 l -20 1280 l 107 1280 m 90 1061 l 184 1061 l 184 0 l 90 0 l 90 1061 z "},"Í":{"ha":277,"x_min":64,"x_max":293,"o":"m 165 1280 l 293 1280 l 293 1278 l 127 1121 l 64 1121 l 64 1125 l 165 1280 m 90 1061 l 184 1061 l 184 0 l 90 0 l 90 1061 z "},"Î":{"ha":277,"x_min":-22,"x_max":298,"o":"m 165 1281 l 298 1127 l 298 1122 l 239 1122 l 137 1201 l 34 1122 l -22 1122 l -22 1127 l 112 1281 l 165 1281 m 90 1061 l 184 1061 l 184 0 l 90 0 l 90 1061 z "},"Ï":{"ha":277,"x_min":1,"x_max":275,"o":"m 1 1223 l 100 1223 l 100 1121 l 1 1121 l 1 1223 m 176 1223 l 275 1223 l 275 1121 l 176 1121 l 176 1223 m 90 1061 l 184 1061 l 184 0 l 90 0 l 90 1061 z "},"Ð":{"ha":603,"x_min":24,"x_max":522,"o":"m 328 1061 q 406 1047 370 1061 q 467 1007 441 1033 q 508 947 493 982 q 522 869 522 911 l 522 192 q 508 115 522 150 q 467 54 493 79 q 405 14 441 28 q 328 0 370 0 l 85 0 l 85 514 l 24 514 l 24 611 l 85 611 l 85 1061 l 328 1061 m 428 861 q 419 909 428 888 q 395 946 411 930 q 358 969 380 961 q 310 978 336 978 l 179 978 l 179 611 l 330 611 l 330 514 l 179 514 l 179 83 l 304 83 q 355 92 332 83 q 394 115 378 100 q 419 152 410 130 q 428 201 428 174 l 428 861 z "},"Ñ":{"ha":607,"x_min":85,"x_max":522,"o":"m 374 1253 l 447 1253 l 447 1169 q 397 1120 447 1120 q 307 1144 368 1120 l 224 1181 l 224 1121 l 153 1121 l 153 1204 q 202 1254 153 1254 q 292 1230 232 1254 l 374 1193 l 374 1253 m 433 1061 l 522 1061 l 522 0 l 457 0 l 174 781 l 174 0 l 85 0 l 85 1061 l 155 1061 l 433 294 l 433 1061 z "},"Ò":{"ha":618,"x_min":85,"x_max":533,"o":"m 282 1280 l 384 1125 l 384 1121 l 321 1121 l 155 1278 l 155 1280 l 282 1280 m 533 75 q 512 21 533 42 q 457 0 490 0 l 160 0 q 106 21 127 0 q 85 75 85 42 l 85 986 q 106 1040 85 1019 q 160 1061 127 1061 l 457 1061 q 512 1040 490 1061 q 533 986 533 1019 l 533 75 m 179 978 l 179 83 l 439 83 l 439 978 l 179 978 z "},"Ó":{"ha":618,"x_min":85,"x_max":533,"o":"m 332 1280 l 460 1280 l 460 1278 l 294 1121 l 231 1121 l 231 1125 l 332 1280 m 533 75 q 512 21 533 42 q 457 0 490 0 l 160 0 q 106 21 127 0 q 85 75 85 42 l 85 986 q 106 1040 85 1019 q 160 1061 127 1061 l 457 1061 q 512 1040 490 1061 q 533 986 533 1019 l 533 75 m 179 978 l 179 83 l 439 83 l 439 978 l 179 978 z "},"Ô":{"ha":618,"x_min":85,"x_max":533,"o":"m 336 1280 l 469 1126 l 469 1121 l 410 1121 l 308 1200 l 205 1121 l 149 1121 l 149 1126 l 283 1280 l 336 1280 m 533 75 q 512 21 533 42 q 457 0 490 0 l 160 0 q 106 21 127 0 q 85 75 85 42 l 85 986 q 106 1040 85 1019 q 160 1061 127 1061 l 457 1061 q 512 1040 490 1061 q 533 986 533 1019 l 533 75 m 179 978 l 179 83 l 439 83 l 439 978 l 179 978 z "},"Õ":{"ha":618,"x_min":85,"x_max":533,"o":"m 384 1253 l 456 1253 l 456 1169 q 406 1120 456 1120 q 317 1144 377 1120 l 234 1181 l 234 1121 l 162 1121 l 162 1204 q 212 1254 162 1254 q 301 1230 241 1254 l 384 1193 l 384 1253 m 533 75 q 512 21 533 42 q 457 0 490 0 l 160 0 q 106 21 127 0 q 85 75 85 42 l 85 986 q 106 1040 85 1019 q 160 1061 127 1061 l 457 1061 q 512 1040 490 1061 q 533 986 533 1019 l 533 75 m 179 978 l 179 83 l 439 83 l 439 978 l 179 978 z "},"Ö":{"ha":618,"x_min":85,"x_max":533,"o":"m 172 1223 l 271 1223 l 271 1121 l 172 1121 l 172 1223 m 347 1223 l 446 1223 l 446 1121 l 347 1121 l 347 1223 m 533 75 q 512 21 533 42 q 457 0 490 0 l 160 0 q 106 21 127 0 q 85 75 85 42 l 85 986 q 106 1040 85 1019 q 160 1061 127 1061 l 457 1061 q 512 1040 490 1061 q 533 986 533 1019 l 533 75 m 179 978 l 179 83 l 439 83 l 439 978 l 179 978 z "},"×":{"ha":639,"x_min":118,"x_max":520,"o":"m 319 522 l 458 661 l 520 599 l 381 460 l 519 322 l 457 260 l 319 399 l 180 260 l 118 321 l 257 460 l 119 599 l 181 661 l 319 522 z "},"Ø":{"ha":618,"x_min":12,"x_max":606,"o":"m 533 852 l 533 75 q 512 21 533 42 q 457 0 490 0 l 160 0 q 106 21 127 0 q 85 75 85 42 l 85 119 l 12 0 l 12 90 l 85 209 l 85 986 q 106 1040 85 1019 q 160 1061 127 1061 l 457 1061 q 512 1040 490 1061 q 533 986 533 1019 l 533 943 l 606 1061 l 606 971 l 533 852 m 439 788 l 439 978 l 179 978 l 179 363 l 439 788 m 179 273 l 179 83 l 439 83 l 439 698 l 179 273 z "},"Ù":{"ha":610,"x_min":85,"x_max":525,"o":"m 282 1280 l 384 1124 l 384 1120 l 321 1120 l 155 1277 l 155 1280 l 282 1280 m 431 1061 l 525 1061 l 525 75 q 504 21 525 42 q 449 0 482 0 l 160 0 q 106 21 127 0 q 85 75 85 42 l 85 1061 l 179 1061 l 179 83 l 431 83 l 431 1061 z "},"Ú":{"ha":610,"x_min":85,"x_max":525,"o":"m 324 1280 l 452 1280 l 452 1277 l 286 1120 l 222 1120 l 222 1124 l 324 1280 m 431 1061 l 525 1061 l 525 75 q 504 21 525 42 q 449 0 482 0 l 160 0 q 106 21 127 0 q 85 75 85 42 l 85 1061 l 179 1061 l 179 83 l 431 83 l 431 1061 z "},"Û":{"ha":610,"x_min":85,"x_max":525,"o":"m 332 1280 l 465 1126 l 465 1121 l 406 1121 l 304 1200 l 201 1121 l 145 1121 l 145 1126 l 279 1280 l 332 1280 m 431 1061 l 525 1061 l 525 75 q 504 21 525 42 q 449 0 482 0 l 160 0 q 106 21 127 0 q 85 75 85 42 l 85 1061 l 179 1061 l 179 83 l 431 83 l 431 1061 z "},"Ü":{"ha":610,"x_min":85,"x_max":525,"o":"m 168 1223 l 267 1223 l 267 1121 l 168 1121 l 168 1223 m 342 1223 l 442 1223 l 442 1121 l 342 1121 l 342 1223 m 431 1061 l 525 1061 l 525 75 q 504 21 525 42 q 449 0 482 0 l 160 0 q 106 21 127 0 q 85 75 85 42 l 85 1061 l 179 1061 l 179 83 l 431 83 l 431 1061 z "},"Ý":{"ha":542,"x_min":31,"x_max":511,"o":"m 298 1270 l 425 1270 l 425 1267 l 259 1111 l 196 1111 l 196 1115 l 298 1270 m 511 1055 l 382 626 q 354 540 370 593 q 318 411 338 487 l 318 0 l 224 0 l 224 411 q 212 464 219 437 q 195 519 204 491 l 159 626 l 31 1055 l 31 1061 l 126 1061 l 272 530 l 416 1061 l 511 1061 l 511 1055 z "},"Þ":{"ha":570,"x_min":85,"x_max":505,"o":"m 505 293 q 484 239 505 260 q 429 218 463 218 l 179 218 l 179 0 l 85 0 l 85 1061 l 179 1061 l 179 857 l 429 857 q 484 836 463 857 q 505 782 505 815 l 505 293 m 179 774 l 179 301 l 411 301 l 411 774 l 179 774 z "},"ß":{"ha":534,"x_min":74,"x_max":460,"o":"m 460 74 q 386 0 460 0 l 261 0 l 261 79 l 371 79 l 371 443 l 260 546 l 260 568 l 370 669 l 370 905 q 296 982 370 982 l 164 982 l 164 0 l 74 0 l 74 1061 l 318 1061 q 374 1050 349 1061 q 419 1021 400 1040 q 448 976 437 1002 q 458 920 458 950 l 458 705 q 429 620 458 652 l 351 557 l 431 494 q 460 408 460 465 l 460 74 z "},"à":{"ha":521,"x_min":71,"x_max":447,"o":"m 242 878 l 344 722 l 344 718 l 281 718 l 115 875 l 115 878 l 242 878 m 447 0 l 358 0 l 358 18 q 302 11 332 14 q 245 3 273 7 q 191 -2 216 0 q 144 -4 165 -4 q 71 69 71 -4 l 71 310 q 147 386 71 386 l 359 386 l 359 585 l 165 585 l 165 472 l 78 472 l 78 583 q 154 660 78 660 l 371 660 q 447 583 447 660 l 447 0 m 158 315 l 158 78 l 359 82 l 359 315 l 158 315 z "},"á":{"ha":521,"x_min":71,"x_max":447,"o":"m 282 878 l 410 878 l 410 875 l 243 718 l 180 718 l 180 722 l 282 878 m 447 0 l 358 0 l 358 18 q 302 11 332 14 q 245 3 273 7 q 191 -2 216 0 q 144 -4 165 -4 q 71 69 71 -4 l 71 310 q 147 386 71 386 l 359 386 l 359 585 l 165 585 l 165 472 l 78 472 l 78 583 q 154 660 78 660 l 371 660 q 447 583 447 660 l 447 0 m 158 315 l 158 78 l 359 82 l 359 315 l 158 315 z "},"â":{"ha":521,"x_min":71,"x_max":447,"o":"m 290 878 l 422 724 l 422 718 l 364 718 l 262 798 l 159 718 l 103 718 l 103 724 l 237 878 l 290 878 m 447 0 l 358 0 l 358 18 q 302 11 332 14 q 245 3 273 7 q 191 -2 216 0 q 144 -4 165 -4 q 71 69 71 -4 l 71 310 q 147 386 71 386 l 359 386 l 359 585 l 165 585 l 165 472 l 78 472 l 78 583 q 154 660 78 660 l 371 660 q 447 583 447 660 l 447 0 m 158 315 l 158 78 l 359 82 l 359 315 l 158 315 z "},"ã":{"ha":521,"x_min":71,"x_max":447,"o":"m 338 850 l 410 850 l 410 766 q 360 717 410 717 q 271 741 331 717 l 188 778 l 188 718 l 116 718 l 116 802 q 165 851 116 851 q 255 827 195 851 l 338 790 l 338 850 m 447 0 l 358 0 l 358 18 q 302 11 332 14 q 245 3 273 7 q 191 -2 216 0 q 144 -4 165 -4 q 71 69 71 -4 l 71 310 q 147 386 71 386 l 359 386 l 359 585 l 165 585 l 165 472 l 78 472 l 78 583 q 154 660 78 660 l 371 660 q 447 583 447 660 l 447 0 m 158 315 l 158 78 l 359 82 l 359 315 l 158 315 z "},"ä":{"ha":521,"x_min":71,"x_max":447,"o":"m 125 821 l 225 821 l 225 718 l 125 718 l 125 821 m 300 821 l 400 821 l 400 718 l 300 718 l 300 821 m 447 0 l 358 0 l 358 18 q 302 11 332 14 q 245 3 273 7 q 191 -2 216 0 q 144 -4 165 -4 q 71 69 71 -4 l 71 310 q 147 386 71 386 l 359 386 l 359 585 l 165 585 l 165 472 l 78 472 l 78 583 q 154 660 78 660 l 371 660 q 447 583 447 660 l 447 0 m 158 315 l 158 78 l 359 82 l 359 315 l 158 315 z "},"å":{"ha":521,"x_min":71,"x_max":447,"o":"m 393 781 q 331 718 393 718 l 195 718 q 132 781 132 718 l 132 908 q 195 971 132 971 l 331 971 q 393 908 393 971 l 393 781 m 201 908 l 201 781 l 324 781 l 324 908 l 201 908 m 447 0 l 358 0 l 358 18 q 302 11 332 14 q 245 3 273 7 q 191 -2 216 0 q 144 -4 165 -4 q 71 69 71 -4 l 71 310 q 147 386 71 386 l 359 386 l 359 585 l 165 585 l 165 472 l 78 472 l 78 583 q 154 660 78 660 l 371 660 q 447 583 447 660 l 447 0 m 158 315 l 158 78 l 359 82 l 359 315 l 158 315 z "},"æ":{"ha":793,"x_min":71,"x_max":720,"o":"m 632 196 l 720 196 l 720 77 q 643 0 720 0 l 432 0 q 372 20 396 0 q 210 2 267 8 q 144 -4 153 -4 q 71 69 71 -4 l 71 310 q 147 386 71 386 l 355 386 l 355 585 l 165 585 l 165 472 l 78 472 l 78 583 q 154 660 78 660 l 643 660 q 720 583 720 660 l 720 345 l 688 314 l 441 314 l 441 75 l 632 75 l 632 196 m 441 585 l 441 385 l 632 385 l 632 585 l 441 585 m 158 315 l 158 74 l 355 79 l 355 315 l 158 315 z "},"ç":{"ha":513,"x_min":74,"x_max":440,"o":"m 351 581 l 164 581 l 164 79 l 351 79 l 351 227 l 440 227 l 440 77 q 364 0 440 0 l 296 0 l 296 -47 q 327 -62 312 -54 q 358 -78 342 -71 q 387 -133 387 -98 l 387 -210 q 332 -264 387 -264 l 193 -264 q 139 -210 139 -264 l 139 -133 l 210 -133 l 210 -203 l 314 -203 l 314 -130 q 283 -115 298 -123 q 254 -100 269 -107 q 224 -45 224 -80 l 224 0 l 150 0 q 74 77 74 0 l 74 583 q 150 660 74 660 l 364 660 q 440 583 440 660 l 440 452 l 351 452 l 351 581 z "},"è":{"ha":518,"x_min":74,"x_max":443,"o":"m 239 878 l 340 722 l 340 718 l 278 718 l 111 875 l 111 878 l 239 878 m 355 196 l 443 196 l 443 77 q 367 0 443 0 l 150 0 q 74 77 74 0 l 74 583 q 150 660 74 660 l 367 660 q 443 583 443 660 l 443 346 l 412 314 l 161 314 l 161 75 l 355 75 l 355 196 m 161 585 l 161 386 l 355 386 l 355 585 l 161 585 z "},"é":{"ha":518,"x_min":74,"x_max":443,"o":"m 275 878 l 402 878 l 402 875 l 236 718 l 173 718 l 173 722 l 275 878 m 355 196 l 443 196 l 443 77 q 367 0 443 0 l 150 0 q 74 77 74 0 l 74 583 q 150 660 74 660 l 367 660 q 443 583 443 660 l 443 346 l 412 314 l 161 314 l 161 75 l 355 75 l 355 196 m 161 585 l 161 386 l 355 386 l 355 585 l 161 585 z "},"ê":{"ha":518,"x_min":74,"x_max":443,"o":"m 286 878 l 418 724 l 418 718 l 360 718 l 258 798 l 155 718 l 99 718 l 99 724 l 233 878 l 286 878 m 355 196 l 443 196 l 443 77 q 367 0 443 0 l 150 0 q 74 77 74 0 l 74 583 q 150 660 74 660 l 367 660 q 443 583 443 660 l 443 346 l 412 314 l 161 314 l 161 75 l 355 75 l 355 196 m 161 585 l 161 386 l 355 386 l 355 585 l 161 585 z "},"ë":{"ha":518,"x_min":74,"x_max":443,"o":"m 121 821 l 221 821 l 221 718 l 121 718 l 121 821 m 296 821 l 396 821 l 396 718 l 296 718 l 296 821 m 355 196 l 443 196 l 443 77 q 367 0 443 0 l 150 0 q 74 77 74 0 l 74 583 q 150 660 74 660 l 367 660 q 443 583 443 660 l 443 346 l 412 314 l 161 314 l 161 75 l 355 75 l 355 196 m 161 585 l 161 386 l 355 386 l 355 585 l 161 585 z "},"ì":{"ha":248,"x_min":-32,"x_max":197,"o":"m 96 878 l 197 722 l 197 718 l 135 718 l -32 875 l -32 878 l 96 878 m 79 660 l 168 660 l 168 0 l 79 0 l 79 660 z "},"í":{"ha":248,"x_min":47,"x_max":276,"o":"m 149 878 l 276 878 l 276 875 l 110 718 l 47 718 l 47 722 l 149 878 m 79 660 l 168 660 l 168 0 l 79 0 l 79 660 z "},"î":{"ha":248,"x_min":-35,"x_max":285,"o":"m 152 867 l 285 713 l 285 708 l 227 708 l 124 787 l 21 708 l -35 708 l -35 713 l 99 867 l 152 867 m 79 660 l 168 660 l 168 0 l 79 0 l 79 660 z "},"ï":{"ha":248,"x_min":-14,"x_max":261,"o":"m -14 821 l 86 821 l 86 718 l -14 718 l -14 821 m 161 821 l 261 821 l 261 718 l 161 718 l 161 821 m 79 660 l 168 660 l 168 0 l 79 0 l 79 660 z "},"ð":{"ha":526,"x_min":74,"x_max":524,"o":"m 524 827 l 453 807 l 453 77 q 376 0 453 0 l 150 0 q 74 77 74 0 l 74 583 q 150 660 74 660 l 366 660 l 366 782 q 277 758 279 758 l 277 842 l 366 867 l 366 983 l 168 983 l 168 850 l 81 850 l 81 985 q 157 1061 81 1061 l 376 1061 q 455 963 455 1061 q 455 948 455 957 q 454 926 455 939 q 453 905 454 913 q 453 890 453 896 q 524 908 522 909 l 524 827 m 164 581 l 164 79 l 366 79 l 366 581 l 164 581 z "},"ñ":{"ha":525,"x_min":74,"x_max":453,"o":"m 338 850 l 410 850 l 410 766 q 360 717 410 717 q 271 741 331 717 l 188 778 l 188 718 l 116 718 l 116 802 q 165 851 116 851 q 255 827 195 851 l 338 790 l 338 850 m 453 0 l 363 0 l 363 579 l 164 574 l 164 0 l 74 0 l 74 660 l 164 660 l 164 642 l 271 656 q 378 664 336 664 q 453 590 453 664 l 453 0 z "},"ò":{"ha":526,"x_min":74,"x_max":453,"o":"m 240 878 l 342 722 l 342 718 l 279 718 l 113 875 l 113 878 l 240 878 m 453 77 q 376 0 453 0 l 150 0 q 74 77 74 0 l 74 583 q 150 660 74 660 l 376 660 q 453 583 453 660 l 453 77 m 164 581 l 164 79 l 363 79 l 363 581 l 164 581 z "},"ó":{"ha":526,"x_min":74,"x_max":453,"o":"m 283 878 l 411 878 l 411 875 l 245 718 l 182 718 l 182 722 l 283 878 m 453 77 q 376 0 453 0 l 150 0 q 74 77 74 0 l 74 583 q 150 660 74 660 l 376 660 q 453 583 453 660 l 453 77 m 164 581 l 164 79 l 363 79 l 363 581 l 164 581 z "},"ô":{"ha":526,"x_min":74,"x_max":453,"o":"m 292 878 l 425 724 l 425 718 l 366 718 l 264 798 l 161 718 l 105 718 l 105 724 l 239 878 l 292 878 m 453 77 q 376 0 453 0 l 150 0 q 74 77 74 0 l 74 583 q 150 660 74 660 l 376 660 q 453 583 453 660 l 453 77 m 164 581 l 164 79 l 363 79 l 363 581 l 164 581 z "},"õ":{"ha":526,"x_min":74,"x_max":453,"o":"m 338 850 l 411 850 l 411 766 q 361 717 411 717 q 271 741 332 717 l 189 778 l 189 718 l 117 718 l 117 802 q 166 851 117 851 q 256 827 196 851 l 338 790 l 338 850 m 453 77 q 376 0 453 0 l 150 0 q 74 77 74 0 l 74 583 q 150 660 74 660 l 376 660 q 453 583 453 660 l 453 77 m 164 581 l 164 79 l 363 79 l 363 581 l 164 581 z "},"ö":{"ha":526,"x_min":74,"x_max":453,"o":"m 126 821 l 226 821 l 226 718 l 126 718 l 126 821 m 301 821 l 401 821 l 401 718 l 301 718 l 301 821 m 453 77 q 376 0 453 0 l 150 0 q 74 77 74 0 l 74 583 q 150 660 74 660 l 376 660 q 453 583 453 660 l 453 77 m 164 581 l 164 79 l 363 79 l 363 581 l 164 581 z "},"÷":{"ha":568,"x_min":47,"x_max":521,"o":"m 355 640 q 349 612 355 625 q 334 589 344 599 q 311 573 324 579 q 283 568 298 568 q 256 573 269 568 q 234 589 243 579 q 218 612 224 599 q 213 640 213 625 q 218 668 213 655 q 234 691 224 682 q 256 706 243 701 q 283 712 269 712 q 311 706 298 712 q 334 691 324 701 q 349 668 344 682 q 355 640 355 655 m 47 509 l 521 509 l 521 424 l 47 424 l 47 509 m 355 292 q 349 263 355 277 q 334 241 344 250 q 311 225 324 231 q 283 220 298 220 q 256 225 269 220 q 234 241 243 231 q 218 263 224 250 q 213 292 213 277 q 218 320 213 307 q 234 343 224 333 q 256 358 243 353 q 283 364 269 364 q 311 358 298 364 q 334 343 324 353 q 349 320 344 333 q 355 292 355 307 z "},"ø":{"ha":526,"x_min":12,"x_max":518,"o":"m 453 518 l 453 77 q 376 0 453 0 l 150 0 q 74 73 76 0 l 12 0 l 12 69 l 74 141 l 74 583 q 150 660 74 660 l 376 660 q 453 585 452 660 l 518 661 l 518 595 l 453 518 m 363 479 l 363 581 l 164 581 l 164 247 l 363 479 m 164 178 l 164 79 l 363 79 l 363 412 l 164 178 z "},"ù":{"ha":525,"x_min":74,"x_max":452,"o":"m 238 878 l 340 722 l 340 718 l 277 718 l 111 875 l 111 878 l 238 878 m 363 660 l 452 660 l 452 0 l 363 0 l 363 18 q 307 11 336 14 q 249 3 277 7 q 195 -2 221 0 q 147 -4 169 -4 q 74 69 74 -4 l 74 660 l 163 660 l 163 81 l 363 86 l 363 660 z "},"ú":{"ha":525,"x_min":74,"x_max":452,"o":"m 283 878 l 410 878 l 410 875 l 244 718 l 181 718 l 181 722 l 283 878 m 363 660 l 452 660 l 452 0 l 363 0 l 363 18 q 307 11 336 14 q 249 3 277 7 q 195 -2 221 0 q 147 -4 169 -4 q 74 69 74 -4 l 74 660 l 163 660 l 163 81 l 363 86 l 363 660 z "},"û":{"ha":525,"x_min":74,"x_max":452,"o":"m 291 878 l 424 724 l 424 718 l 366 718 l 263 798 l 160 718 l 104 718 l 104 724 l 238 878 l 291 878 m 363 660 l 452 660 l 452 0 l 363 0 l 363 18 q 307 11 336 14 q 249 3 277 7 q 195 -2 221 0 q 147 -4 169 -4 q 74 69 74 -4 l 74 660 l 163 660 l 163 81 l 363 86 l 363 660 z "},"ü":{"ha":525,"x_min":74,"x_max":452,"o":"m 125 821 l 225 821 l 225 718 l 125 718 l 125 821 m 300 821 l 400 821 l 400 718 l 300 718 l 300 821 m 363 660 l 452 660 l 452 0 l 363 0 l 363 18 q 307 11 336 14 q 249 3 277 7 q 195 -2 221 0 q 147 -4 169 -4 q 74 69 74 -4 l 74 660 l 163 660 l 163 81 l 363 86 l 363 660 z "},"ý":{"ha":482,"x_min":36,"x_max":446,"o":"m 273 878 l 401 878 l 401 875 l 235 718 l 172 718 l 172 722 l 273 878 m 241 140 l 355 660 l 446 660 l 287 5 l 221 -250 l 132 -250 l 199 5 l 36 660 l 129 660 l 241 140 z "},"þ":{"ha":524,"x_min":74,"x_max":453,"o":"m 453 142 q 443 85 453 111 q 413 40 432 59 q 369 11 394 22 q 313 0 343 0 l 164 0 l 164 -250 l 74 -250 l 74 1061 l 164 1061 l 164 642 l 271 655 q 332 662 306 660 q 378 664 358 664 q 453 590 453 664 l 453 142 m 363 579 l 164 574 l 164 79 l 289 79 q 363 155 363 79 l 363 579 z "},"ÿ":{"ha":482,"x_min":36,"x_max":446,"o":"m 104 821 l 204 821 l 204 718 l 104 718 l 104 821 m 279 821 l 379 821 l 379 718 l 279 718 l 279 821 m 241 140 l 355 660 l 446 660 l 287 5 l 221 -250 l 132 -250 l 199 5 l 36 660 l 129 660 l 241 140 z "},"ı":{"ha":248,"x_min":79,"x_max":168,"o":"m 79 660 l 168 660 l 168 0 l 79 0 l 79 660 z "},"Ł":{"ha":468,"x_min":25,"x_max":424,"o":"m 424 0 l 85 0 l 85 316 l 25 272 l 25 368 l 85 412 l 85 1061 l 179 1061 l 179 481 l 334 595 l 334 500 l 179 386 l 179 83 l 424 83 l 424 0 z "},"ł":{"ha":248,"x_min":18,"x_max":229,"o":"m 168 385 l 168 0 l 79 0 l 79 318 l 18 272 l 18 368 l 79 414 l 79 1061 l 168 1061 l 168 481 l 229 526 l 229 431 l 168 385 z "},"Œ":{"ha":819,"x_min":85,"x_max":757,"o":"m 505 83 l 757 83 l 757 0 l 160 0 q 106 21 127 0 q 85 75 85 42 l 85 986 q 106 1040 85 1019 q 160 1061 127 1061 l 753 1061 l 753 978 l 505 978 l 505 582 l 732 582 l 732 497 l 505 497 l 505 83 m 179 978 l 179 83 l 411 83 l 411 978 l 179 978 z "},"œ":{"ha":796,"x_min":74,"x_max":722,"o":"m 636 196 l 722 196 l 722 77 q 646 0 722 0 l 150 0 q 74 77 74 0 l 74 583 q 150 660 74 660 l 646 660 q 722 583 722 660 l 722 346 l 690 314 l 444 314 l 444 75 l 636 75 l 636 196 m 163 585 l 163 75 l 359 75 l 359 585 l 163 585 m 444 585 l 444 386 l 636 386 l 636 585 l 444 585 z "},"Š":{"ha":581,"x_min":81,"x_max":498,"o":"m 399 1280 l 454 1280 l 454 1276 l 317 1121 l 264 1121 l 127 1276 l 127 1280 l 185 1280 l 292 1200 l 399 1280 m 498 75 q 478 21 498 42 q 424 0 457 0 l 157 0 q 102 21 123 0 q 81 75 81 42 l 81 345 l 175 345 l 175 83 l 404 83 l 404 336 l 111 690 q 81 771 81 727 l 81 986 q 102 1040 81 1019 q 157 1061 123 1061 l 424 1061 q 478 1040 457 1061 q 498 986 498 1019 l 498 739 l 404 739 l 404 978 l 175 978 l 175 754 l 469 400 q 498 321 498 365 l 498 75 z "},"š":{"ha":498,"x_min":69,"x_max":429,"o":"m 358 878 l 414 878 l 414 873 l 277 718 l 224 718 l 86 873 l 86 878 l 144 878 l 252 798 l 358 878 m 429 77 q 353 0 429 0 l 146 0 q 69 77 69 0 l 69 227 l 158 227 l 158 78 l 340 78 l 340 210 l 104 403 q 71 473 71 431 l 71 583 q 147 660 71 660 l 351 660 q 428 583 428 660 l 428 452 l 340 452 l 340 582 l 158 582 l 158 467 l 396 273 q 429 201 429 247 l 429 77 z "},"Ÿ":{"ha":542,"x_min":31,"x_max":511,"o":"m 134 1223 l 233 1223 l 233 1121 l 134 1121 l 134 1223 m 309 1223 l 408 1223 l 408 1121 l 309 1121 l 309 1223 m 511 1055 l 382 626 q 354 540 370 593 q 318 411 338 487 l 318 0 l 224 0 l 224 411 q 212 464 219 437 q 195 519 204 491 l 159 626 l 31 1055 l 31 1061 l 126 1061 l 272 530 l 416 1061 l 511 1061 l 511 1055 z "},"Ž":{"ha":478,"x_min":33,"x_max":440,"o":"m 359 1280 l 415 1280 l 415 1276 l 278 1121 l 225 1121 l 87 1276 l 87 1280 l 146 1280 l 253 1200 l 359 1280 m 142 83 l 440 83 l 440 0 l 33 0 l 33 50 l 332 978 l 62 978 l 62 1061 l 440 1061 l 440 1013 l 142 83 z "},"ž":{"ha":444,"x_min":43,"x_max":395,"o":"m 340 878 l 395 878 l 395 873 l 258 718 l 205 718 l 68 873 l 68 878 l 126 878 l 233 798 l 340 878 m 149 81 l 390 81 l 390 0 l 43 0 l 43 41 l 283 579 l 68 579 l 68 660 l 390 660 l 390 618 l 149 81 z "},"ƒ":{"ha":424,"x_min":-85,"x_max":415,"o":"m 415 1061 l 406 982 l 277 982 l 232 660 l 346 660 l 334 581 l 220 581 l 114 -174 q 28 -250 102 -250 l -85 -250 l -75 -171 l 25 -171 l 131 581 l 54 581 l 66 660 l 143 660 l 187 985 q 275 1061 199 1061 l 415 1061 z "},"ˆ":{"ha":555,"x_min":118,"x_max":437,"o":"m 304 878 l 437 724 l 437 718 l 379 718 l 277 798 l 174 718 l 118 718 l 118 724 l 252 878 l 304 878 z "},"ˇ":{"ha":555,"x_min":114,"x_max":441,"o":"m 386 878 l 441 878 l 441 873 l 304 718 l 252 718 l 114 873 l 114 878 l 172 878 l 279 798 l 386 878 z "},"˘":{"ha":555,"x_min":147,"x_max":408,"o":"m 338 868 l 408 868 l 408 781 q 346 718 408 718 l 210 718 q 147 781 147 718 l 147 868 l 218 868 l 218 783 l 338 783 l 338 868 z "},"˙":{"ha":555,"x_min":228,"x_max":328,"o":"m 228 821 l 328 821 l 328 718 l 228 718 l 228 821 z "},"˚":{"ha":555,"x_min":147,"x_max":408,"o":"m 408 781 q 346 718 408 718 l 210 718 q 147 781 147 718 l 147 908 q 210 971 147 971 l 346 971 q 408 908 408 971 l 408 781 m 216 908 l 216 781 l 339 781 l 339 908 l 216 908 z "},"˛":{"ha":555,"x_min":153,"x_max":392,"o":"m 229 -186 l 392 -186 l 392 -250 l 207 -250 q 153 -196 153 -250 l 153 -117 q 179 -56 153 -81 l 252 14 l 339 14 l 339 8 l 229 -102 l 229 -186 z "},"˜":{"ha":555,"x_min":131,"x_max":425,"o":"m 353 850 l 425 850 l 425 766 q 375 717 425 717 q 286 741 346 717 l 203 778 l 203 718 l 131 718 l 131 802 q 180 851 131 851 q 270 827 210 851 l 353 790 l 353 850 z "},"˝":{"ha":555,"x_min":78,"x_max":482,"o":"m 180 878 l 301 878 l 301 875 l 135 718 l 78 718 l 78 722 l 180 878 m 361 878 l 482 878 l 482 875 l 315 718 l 258 718 l 258 722 l 361 878 z "},"Δ":{"ha":555,"x_min":31,"x_max":526,"o":"m 526 0 l 31 0 l 31 83 l 232 1064 l 325 1064 q 355 915 328 1044 q 431 547 381 786 q 526 80 526 81 l 526 0 m 277 895 l 122 90 l 432 90 l 277 895 z "},"Ω":{"ha":716,"x_min":40,"x_max":678,"o":"m 494 87 l 678 87 l 678 -1 l 415 -1 l 415 332 l 540 332 l 540 978 l 180 977 l 179 332 l 304 332 l 304 -1 l 40 -1 l 40 87 l 224 87 l 224 248 l 160 248 q 106 269 127 248 q 85 323 85 290 l 85 986 q 106 1040 85 1019 q 160 1061 127 1061 l 557 1061 q 612 1040 590 1061 q 634 986 634 1019 l 634 323 q 613 269 634 290 q 559 248 592 248 l 494 248 l 494 87 z "},"π":{"ha":545,"x_min":26,"x_max":518,"o":"m 26 606 l 518 606 l 518 522 l 418 522 l 418 0 l 326 0 l 326 522 l 216 522 l 216 0 l 124 0 l 124 522 l 26 522 l 26 606 z "},"–":{"ha":590,"x_min":65,"x_max":525,"o":"m 65 447 l 525 447 l 525 363 l 65 363 l 65 447 z "},"—":{"ha":876,"x_min":65,"x_max":810,"o":"m 65 447 l 810 447 l 810 363 l 65 363 l 65 447 z "},"‘":{"ha":231,"x_min":46,"x_max":172,"o":"m 46 728 l 111 1061 l 172 1061 l 147 728 l 46 728 z "},"’":{"ha":231,"x_min":60,"x_max":184,"o":"m 60 728 l 85 1061 l 184 1061 l 121 728 l 60 728 z "},"‚":{"ha":231,"x_min":47,"x_max":174,"o":"m 47 -163 l 72 171 l 174 171 l 109 -163 l 47 -163 z "},"“":{"ha":427,"x_min":46,"x_max":367,"o":"m 46 728 l 111 1061 l 172 1061 l 147 728 l 46 728 m 241 728 l 306 1061 l 367 1061 l 342 728 l 241 728 z "},"”":{"ha":427,"x_min":60,"x_max":380,"o":"m 60 728 l 85 1061 l 184 1061 l 121 728 l 60 728 m 254 728 l 279 1061 l 380 1061 l 315 728 l 254 728 z "},"„":{"ha":427,"x_min":60,"x_max":380,"o":"m 60 -163 l 85 171 l 184 171 l 121 -163 l 60 -163 m 254 -163 l 279 171 l 380 171 l 315 -163 l 254 -163 z "},"†":{"ha":610,"x_min":57,"x_max":553,"o":"m 350 774 l 553 774 l 553 694 l 350 694 l 350 0 l 260 0 l 260 694 l 57 694 l 57 774 l 260 774 l 260 1061 l 350 1061 l 350 774 z "},"‡":{"ha":610,"x_min":57,"x_max":553,"o":"m 349 367 l 553 367 l 553 288 l 349 288 l 349 0 l 261 0 l 261 288 l 57 288 l 57 367 l 261 367 l 261 694 l 57 694 l 57 774 l 261 774 l 261 1061 l 349 1061 l 349 774 l 553 774 l 553 694 l 349 694 l 349 367 z "},"•":{"ha":586,"x_min":89,"x_max":497,"o":"m 497 406 q 418 326 497 326 l 168 326 q 89 406 89 326 l 89 654 q 168 733 89 733 l 418 733 q 497 654 497 733 l 497 406 z "},"…":{"ha":693,"x_min":64,"x_max":628,"o":"m 64 119 l 167 119 l 167 0 l 64 0 l 64 119 m 296 119 l 397 119 l 397 0 l 296 0 l 296 119 m 526 119 l 628 119 l 628 0 l 526 0 l 526 119 z "},"‰":{"ha":1346,"x_min":58,"x_max":1281,"o":"m 721 1064 l 798 1064 l 798 1058 l 215 3 l 137 3 l 137 8 l 721 1064 m 387 591 q 382 564 387 576 q 368 542 377 551 q 347 527 359 532 q 321 522 335 522 l 123 522 q 99 528 111 522 q 78 544 87 534 q 64 566 69 553 q 58 591 58 578 l 58 991 q 64 1016 58 1004 q 79 1039 70 1029 q 100 1055 88 1048 q 123 1061 111 1061 l 321 1061 q 346 1055 334 1061 q 367 1040 358 1049 q 382 1018 376 1030 q 387 991 387 1005 l 387 591 m 140 982 l 140 597 l 305 597 l 305 982 l 140 982 m 874 69 q 869 42 874 55 q 855 20 864 30 q 834 5 846 11 q 808 0 822 0 l 610 0 q 586 6 598 0 q 565 22 574 12 q 551 44 556 32 q 545 69 545 57 l 545 470 q 551 495 545 482 q 566 517 557 507 q 587 533 575 527 q 610 540 598 540 l 808 540 q 833 534 821 540 q 854 518 845 528 q 869 496 863 509 q 874 470 874 484 l 874 69 m 1281 69 q 1276 42 1281 55 q 1262 20 1271 30 q 1241 5 1253 11 q 1215 0 1229 0 l 1017 0 q 993 6 1005 0 q 972 22 981 12 q 958 44 963 32 q 952 69 952 57 l 952 470 q 958 495 952 482 q 973 517 964 507 q 994 533 982 527 q 1017 540 1005 540 l 1215 540 q 1240 534 1228 540 q 1261 518 1252 528 q 1276 496 1270 509 q 1281 470 1281 484 l 1281 69 m 627 460 l 627 76 l 792 76 l 792 460 l 627 460 m 1034 460 l 1034 76 l 1199 76 l 1199 460 l 1034 460 z "},"‹":{"ha":389,"x_min":53,"x_max":318,"o":"m 318 642 l 147 376 l 318 106 l 222 106 l 53 363 l 53 390 l 222 647 l 318 647 l 318 642 z "},"›":{"ha":389,"x_min":71,"x_max":336,"o":"m 167 647 l 336 390 l 336 363 l 167 106 l 71 106 l 71 111 l 241 376 l 71 647 l 167 647 z "},"⁄":{"ha":220,"x_min":-221,"x_max":440,"o":"m 363 1061 l 440 1061 l 440 1055 l -143 0 l -221 0 l -221 5 l 363 1061 z "},"€":{"ha":560,"x_min":36,"x_max":496,"o":"m 401 256 l 496 256 l 496 75 q 475 21 496 42 q 420 0 453 0 l 174 0 q 119 21 140 0 q 98 75 98 42 l 98 401 l 36 401 l 36 481 l 98 481 l 98 594 l 36 594 l 36 676 l 98 676 l 98 986 q 119 1040 98 1019 q 174 1061 140 1061 l 420 1061 q 475 1040 453 1061 q 496 986 496 1019 l 496 807 l 401 807 l 401 978 l 193 978 l 193 676 l 462 676 l 462 594 l 193 594 l 193 481 l 462 481 l 462 401 l 193 401 l 193 83 l 401 83 l 401 256 z "},"™":{"ha":757,"x_min":52,"x_max":686,"o":"m 52 1061 l 307 1061 l 307 1000 l 211 1000 l 211 453 l 147 453 l 147 1000 l 52 1000 l 52 1061 m 628 1061 l 686 1061 l 686 453 l 623 453 l 623 825 l 543 517 l 521 517 l 441 825 l 441 453 l 378 453 l 378 1061 l 439 1061 l 532 679 l 628 1061 z "},"∂":{"ha":589,"x_min":84,"x_max":505,"o":"m 180 1061 l 282 1061 l 505 583 l 505 75 q 484 21 505 42 q 430 0 463 0 l 159 0 q 105 21 126 0 q 84 75 84 42 l 84 510 q 105 564 84 543 q 159 585 126 585 l 401 585 l 180 1061 m 178 503 l 178 83 l 410 83 l 410 503 l 178 503 z "},"∏":{"ha":545,"x_min":26,"x_max":518,"o":"m 26 1061 l 518 1061 l 518 978 l 418 978 l 418 0 l 326 0 l 326 978 l 216 978 l 216 0 l 124 0 l 124 978 l 26 978 l 26 1061 z "},"∑":{"ha":496,"x_min":58,"x_max":440,"o":"m 152 83 l 440 83 l 440 0 l 58 0 l 58 73 l 317 540 l 58 977 l 58 1061 l 436 1061 l 436 978 l 151 978 l 393 580 l 393 499 l 152 83 z "},"√":{"ha":602,"x_min":24,"x_max":572,"o":"m 233 111 l 478 1061 l 572 1061 l 282 -1 l 201 -1 l 24 367 l 122 367 l 233 111 z "},"∞":{"ha":861,"x_min":24,"x_max":838,"o":"m 838 171 q 762 94 838 94 l 591 94 q 498 171 548 94 l 431 273 l 364 170 q 339 133 350 147 q 319 110 329 119 q 298 98 309 102 q 273 94 287 94 l 101 94 q 24 171 24 94 l 24 515 q 101 592 24 592 l 273 592 q 366 515 318 591 l 432 413 l 498 515 q 591 592 549 592 l 762 592 q 838 515 837 592 l 838 171 m 115 174 l 277 174 l 386 342 l 274 513 l 115 513 l 115 174 m 477 344 l 587 174 l 747 174 l 747 513 l 586 513 l 477 344 z "},"∫":{"ha":330,"x_min":-22,"x_max":323,"o":"m 323 1061 l 323 982 l 196 982 l 196 -196 q 191 -224 196 -211 q 177 -249 186 -238 q 154 -265 168 -259 q 123 -271 140 -271 l -22 -272 l -22 -193 l 106 -193 l 107 985 q 183 1061 107 1061 l 323 1061 z "},"≈":{"ha":701,"x_min":115,"x_max":586,"o":"m 497 687 l 586 687 l 586 545 q 530 487 586 487 q 460 500 497 487 l 204 598 l 204 491 l 115 491 l 115 633 q 171 691 115 691 q 241 677 206 691 l 497 580 l 497 687 m 497 419 l 586 419 l 586 277 q 530 219 586 219 q 460 233 497 219 l 204 330 l 204 223 l 115 223 l 115 365 q 171 423 115 423 q 241 409 206 423 l 497 312 l 497 419 z "},"≠":{"ha":612,"x_min":69,"x_max":543,"o":"m 328 346 l 543 346 l 543 265 l 308 265 l 254 47 l 174 66 l 223 265 l 69 265 l 69 346 l 243 346 l 285 513 l 69 513 l 69 595 l 305 595 l 359 812 l 438 792 l 389 595 l 543 595 l 543 513 l 369 513 l 328 346 z "},"≤":{"ha":473,"x_min":52,"x_max":396,"o":"m 144 465 l 396 299 l 396 205 l 392 205 l 52 439 l 52 488 l 396 725 l 396 631 l 144 465 m 52 179 l 396 179 l 396 98 l 52 98 l 52 179 z "},"≥":{"ha":473,"x_min":65,"x_max":410,"o":"m 69 725 l 410 488 l 410 439 l 65 205 l 65 299 l 316 465 l 65 631 l 65 725 l 69 725 m 65 179 l 409 179 l 409 98 l 65 98 l 65 179 z "},"◊":{"ha":560,"x_min":20,"x_max":541,"o":"m 257 734 l 306 734 l 541 389 l 306 45 l 257 45 l 20 389 l 257 734 m 115 389 l 281 138 l 447 389 l 281 641 l 115 389 z "},"":{"ha":591,"x_min":31,"x_max":513,"o":"m 196 660 l 513 660 l 513 0 l 424 0 l 424 581 l 196 581 l 196 0 l 107 0 l 107 581 l 31 581 l 31 660 l 107 660 l 107 985 q 183 1061 107 1061 l 436 1061 q 513 985 513 1061 l 513 804 l 424 804 l 424 982 l 196 982 l 196 660 z "},"":{"ha":591,"x_min":31,"x_max":513,"o":"m 513 1061 l 513 0 l 424 0 l 424 982 l 196 982 l 196 660 l 309 660 l 309 581 l 196 581 l 196 0 l 107 0 l 107 581 l 31 581 l 31 660 l 107 660 l 107 985 q 183 1061 107 1061 l 513 1061 z "}}}
